<?xml version="1.0" encoding="utf-8"?>
<!-- Generator: Adobe Illustrator 16.0.4, SVG Export Plug-In . SVG Version: 6.00 Build 0)  -->
<!DOCTYPE svg PUBLIC "-//W3C//DTD SVG 1.1//EN" "http://www.w3.org/Graphics/SVG/1.1/DTD/svg11.dtd">
<svg version="1.1" id="Ebene_1" xmlns="http://www.w3.org/2000/svg" xmlns:xlink="http://www.w3.org/1999/xlink" x="0px" y="0px"
	 width="453.54px" height="99.21px" viewBox="0 0 453.54 99.21" enable-background="new 0 0 453.54 99.21" xml:space="preserve">
<g>
	<defs>
		<rect id="SVGID_1_" x="6.188" y="17" width="443.353" height="65.21"/>
	</defs>
	<clipPath id="SVGID_2_">
		<use xlink:href="#SVGID_1_"  overflow="visible"/>
	</clipPath>
	<path clip-path="url(#SVGID_2_)" fill="#424040" d="M412.158,81.11h8.795V58.19c0-6.682,4.398-10.318,10.065-10.318
		c5.835,0,9.727,3.044,9.727,10.487V81.11h8.795V56.415c0-10.15-7.274-17.339-15.9-17.339c-5.582,0-10.064,2.453-12.517,6.259h-0.17
		v-5.159h-8.795V81.11z M367.671,56.415c1.438-6.09,6.005-9.558,11.587-9.558s10.234,3.299,12.095,9.558H367.671z M392.029,68.086
		c-3.045,4.06-7.104,6.343-11.841,6.343c-6.175,0-12.01-4.482-12.518-10.741h34v-1.606c0-15.986-12.687-23.005-21.229-23.005
		c-14.294,0-22.582,10.742-22.582,21.567c0,10.827,8.288,21.567,22.582,21.567c7.357-0.085,14.124-3.806,19.029-9.98L392.029,68.086
		z M330.628,48.464h4.99v17.761c0,8.542,4.229,11.671,13.277,15.984l3.891-6.936l-4.736-2.706c-2.622-1.522-3.637-3.552-3.637-7.949
		V48.464h7.021v-8.289h-7.021V26.897l-8.795,2.453v10.826h-4.99V48.464z M303.479,81.11h8.797V54.046
		c0-3.721,2.874-6.173,6.089-6.173c0.846,0,2.453,0.507,3.299,1.184l3.129-8.712c-1.184-0.761-2.876-1.269-4.82-1.269
		c-3.552,0-6.598,2.199-8.034,5.583h-0.17v-4.482h-8.289V81.11z M258.655,60.643c0-7.358,5.582-13.277,13.279-13.277
		c7.694,0,13.277,5.919,13.277,13.277s-5.583,13.279-13.277,13.279C264.237,73.922,258.655,68.001,258.655,60.643 M249.352,60.643
		c0,10.827,8.289,21.567,22.583,21.567c14.293,0,22.58-10.74,22.58-21.567c0-10.825-8.287-21.567-22.58-21.567
		C257.641,39.076,249.352,49.817,249.352,60.643 M210.447,82.21l9.557-22.159h0.169l9.558,22.159l15.815-42.034h-9.473L228.8,62.335
		h-0.169l-8.542-19.621l-8.542,19.621h-0.169l-7.274-22.159h-9.472L210.447,82.21z M166.806,48.464h4.991v17.761
		c0,8.542,4.228,11.671,13.278,15.984l3.891-6.936l-4.737-2.706c-2.621-1.522-3.636-3.552-3.636-7.949V48.464h7.02v-8.289h-7.02
		V26.897l-8.795,2.453v10.826h-4.991V48.464z M121.136,81.11h8.797V58.19c0-6.682,4.398-10.318,10.064-10.318
		c5.836,0,9.726,3.044,9.726,10.487V81.11h8.796V56.415c0-10.15-7.273-17.339-15.9-17.339c-5.583,0-10.065,2.453-12.517,6.259
		h-0.169v-5.159h-8.797V81.11z M74.789,60.643c0-7.358,5.92-13.277,13.025-13.277c6.935,0,12.855,5.919,12.855,13.277
		s-5.921,13.279-12.855,13.279C80.709,73.922,74.789,68.001,74.789,60.643 M100.331,81.11h8.795V40.176h-8.795v4.99h-0.169
		c-2.283-3.467-6.936-6.09-13.024-6.09c-13.279,0-21.652,11.503-21.652,21.567c0,10.572,7.781,21.567,21.229,21.567
		c5.583,0,10.657-2.368,13.448-6.089h0.169V81.11z"/>
	<path clip-path="url(#SVGID_2_)" fill="#86BC25" d="M9.137,27.58h25.026L19.209,47.112c2.576-0.968,4.757-1.559,7.791-1.886
		c10.846-1.168,16.625,6.361,16.625,13.585c0,6.714-5.298,13.529-13.539,13.529c-5.289,0-10.979-3.255-14.743-6.815L6.188,72.85
		c6.206,6.715,14.141,9.36,22.788,9.36c17.091,0,26.451-12.208,26.451-23.806c0-11.394-8.749-18.922-17.702-19.329L55.426,17H9.137
		V27.58z"/>
</g>
</svg>
